<svg xmlns="http://www.w3.org/2000/svg" xmlns:xlink="http://www.w3.org/1999/xlink" id="Layer_1" x="0" y="0" enable-background="new 0 0 589.4 549.6" version="1.1" viewBox="0 0 589.4 549.6" xml:space="preserve"><g id="paper_7_"><g><path fill="#E6E6E6" d="M378.5,69H136.1C101.3,69,73,97.3,73,132.1v337.3v1.4c0,33.1,27.7,60.2,60.9,60.2c20.5,0,20.5,0,0,0H379 c34.2,0,62-27.7,62-62V131.5C441,97,413,69,378.5,69z"/></g></g><g><path fill="#24669B" d="M158.7,187.7h3.5c0.2,0.9,0.4,2,0.6,3.3c0.2,1.3,0.4,2.7,0.5,4.1c0.1,1.5,0.2,2.9,0.3,4.3 c0.1,1.4,0.1,2.7,0.1,3.9c-2,1.3-4.5,2.1-7.5,2.7c-3,0.5-6.1,0.8-9.2,0.8c-4.7,0-9.1-0.6-12.9-1.8c-3.9-1.2-7.2-3-9.9-5.6 c-2.7-2.5-4.8-5.8-6.3-9.7c-1.5-3.9-2.2-8.6-2.2-14.1c0-5.4,0.8-10.1,2.4-14c1.6-3.9,3.8-7.1,6.6-9.7c2.7-2.5,5.9-4.4,9.6-5.5 c3.6-1.2,7.5-1.8,11.5-1.8c3.8,0,7.2,0.3,10.3,0.8c3.1,0.5,5.6,1.3,7.5,2.2c0,0.9,0,2.1-0.1,3.5c-0.1,1.4-0.2,2.9-0.4,4.5 c-0.2,1.6-0.4,3.1-0.7,4.6c-0.3,1.5-0.5,2.8-0.7,3.8H158l-4.7-13c-0.5-0.3-1.3-0.5-2.5-0.7c-1.1-0.2-2.3-0.3-3.5-0.3 c-2.3,0-4.5,0.5-6.6,1.4c-2.1,0.9-3.9,2.4-5.5,4.5c-1.6,2.1-2.9,4.7-3.8,7.9c-0.9,3.2-1.4,7.1-1.4,11.6c0,8.2,1.6,14.5,4.9,18.9 c3.3,4.4,7.7,6.6,13.3,6.6c1.6,0,3-0.1,4.1-0.4s1.9-0.6,2.3-1.1L158.7,187.7z"/><path fill="#24669B" d="M175.2,145.7h28.1v3.3c-1.2,0.6-2.5,1.2-4,1.6c-1.5,0.4-2.9,0.7-4.2,0.9v48.7h16.6l5.8-15.4h3.5 c0.2,1.3,0.4,2.9,0.6,4.6c0.2,1.8,0.4,3.6,0.5,5.6c0.1,1.9,0.2,3.9,0.3,5.8c0.1,1.9,0.1,3.5,0,5h-47.1v-3.3 c1.3-0.7,2.6-1.2,3.7-1.6c1.2-0.4,2.3-0.7,3.3-0.9v-48.6c-2.8-0.5-5.1-1.3-7-2.5V145.7z"/><path fill="#24669B" d="M251.6,205.8h-21.2v-3.3c0.9-0.6,1.9-1.1,3-1.5c1.1-0.4,2.1-0.8,3.1-1l22.1-55.4h6.4l21.5,55.4 c1.1,0.2,2.3,0.6,3.4,1c1.1,0.4,2.1,0.9,3,1.5v3.3h-26.9v-3.3c1.1-0.5,2.3-1,3.5-1.5c1.3-0.5,2.5-0.8,3.6-1l-5-13.6h-19.1 l-5.1,13.6c2.6,0.3,5.1,1.2,7.5,2.5V205.8z M251.3,180.8h15.2l-5.6-16.4l-1.6-7.4h-0.2l-1.9,7.6L251.3,180.8z"/></g><path id="line5_7_" fill="#878787" d="M200.1,425.5h-78.5c-1.4,0-2.5-1.1-2.5-2.5V416c0-1.4,1.1-2.5,2.5-2.5h78.5	c1.4,0,2.5,1.1,2.5,2.5v7.1C202.6,424.4,201.5,425.5,200.1,425.5z"/><path id="line5_8_" fill="#878787" d="M293.2,425.5h-78.5c-1.4,0-2.5-1.1-2.5-2.5V416c0-1.4,1.1-2.5,2.5-2.5h78.5	c1.4,0,2.5,1.1,2.5,2.5v7.1C295.7,424.4,294.6,425.5,293.2,425.5z"/><path id="line4_7_" fill="#878787" d="M237.5,347.5H121.6c-1.4,0-2.5-1.1-2.5-2.5V338c0-1.4,1.1-2.5,2.5-2.5h115.9	c1.4,0,2.5,1.1,2.5,2.5v7.1C239.9,346.4,238.8,347.5,237.5,347.5z"/><path id="line4_8_" fill="#878787" d="M291.1,347.5h-39.6c-1.4,0-2.5-1.1-2.5-2.5V338c0-1.4,1.1-2.5,2.5-2.5h39.6	c1.4,0,2.5,1.1,2.5,2.5v7.1C293.6,346.4,292.5,347.5,291.1,347.5z"/><path id="line2_7_" fill="#878787" d="M192.9,276h-71.3c-1.4,0-2.5-1.1-2.5-2.5v-7.1c0-1.4,1.1-2.5,2.5-2.5h71.3	c1.4,0,2.5,1.1,2.5,2.5v7.1C195.4,274.9,194.3,276,192.9,276z"/><path id="line2_8_" fill="#878787" d="M296.6,276h-87.9c-1.4,0-2.5-1.1-2.5-2.5v-7.1c0-1.4,1.1-2.5,2.5-2.5h87.9	c1.4,0,2.5,1.1,2.5,2.5v7.1C299.1,274.9,298,276,296.6,276z"/><path id="sign_5_" fill="#878787" d="M385.1,283.9c-1.6,0-3-0.4-4.1-1.3c-2.4-1.9-2.7-6-3.1-10.8c-0.2-2-0.4-5.1-0.9-6.3	c-0.9,0.4-2.7,1.7-4.2,2.8c-1.6,1.1-3.3,2.4-5.5,3.8c-0.6,0.4-1.2,0.8-1.8,1.2c-6,3.9-9.6,6.2-13,4.8c-7-3-6.6-14.9-6.3-26.5	c0.2-5,0.4-14.3-1.1-15.6c0,0,0,0,0,0c-0.8,0-3.1,1.3-9.1,9.1c-6.5,8.6-10.5,19.2-11.6,30.7c-0.1,1.5-1.4,2.5-2.9,2.4	c-1.5-0.1-2.5-1.4-2.4-2.9c1.2-12.5,5.5-24.1,12.6-33.4c4.9-6.5,10.1-12.6,15.1-10.9c5.2,1.8,4.9,10.2,4.6,20.7	c-0.2,7.9-0.6,19.9,3.1,21.4c1,0.3,4.9-2.3,8.1-4.3c0.6-0.4,1.2-0.8,1.8-1.2c2-1.3,3.7-2.5,5.2-3.6c4.1-2.9,7.3-5.3,10.3-3.1	c2.4,1.7,2.8,5.8,3.1,10.5c0.2,2.3,0.5,6.2,1.2,7.1c0.2,0.1,1.8,0.8,7.1-2c1.3-0.7,2.9-0.2,3.6,1.1c0.7,1.3,0.2,2.9-1.1,3.6	C390.3,283,387.4,283.9,385.1,283.9z"/><path id="sign_6_" fill="#878787" d="M385.1,359.1c-1.6,0-3-0.4-4.1-1.3c-2.4-1.9-2.7-6-3.1-10.8c-0.2-2-0.4-5.1-0.9-6.3	c-0.9,0.4-2.7,1.7-4.2,2.8c-1.6,1.1-3.3,2.4-5.5,3.8c-0.6,0.4-1.2,0.8-1.8,1.2c-6,3.9-9.6,6.2-13,4.8c-7-3-6.6-14.9-6.3-26.5	c0.2-5,0.4-14.3-1.1-15.6c0,0,0,0,0,0c-0.8,0-3.1,1.3-9.1,9.1c-6.5,8.6-10.5,19.2-11.6,30.7c-0.1,1.5-1.4,2.5-2.9,2.4	c-1.5-0.1-2.5-1.4-2.4-2.9c1.2-12.5,5.5-24.1,12.6-33.4c4.9-6.5,10.1-12.6,15.1-10.9c5.2,1.8,4.9,10.2,4.6,20.7	c-0.2,7.9-0.6,19.9,3.1,21.4c1,0.3,4.9-2.3,8.1-4.3c0.6-0.4,1.2-0.8,1.8-1.2c2-1.3,3.7-2.5,5.2-3.6c4.1-2.9,7.3-5.3,10.3-3.1	c2.4,1.7,2.8,5.8,3.1,10.5c0.2,2.3,0.5,6.2,1.2,7.1c0.2,0.1,1.8,0.8,7.1-2c1.3-0.7,2.9-0.2,3.6,1.1c0.7,1.3,0.2,2.9-1.1,3.6	C390.3,358.2,387.4,359.1,385.1,359.1z"/><path id="sign_7_" fill="#878787" d="M385.1,434.3c-1.6,0-3-0.4-4.1-1.3c-2.4-1.9-2.7-6-3.1-10.8c-0.2-2-0.4-5.1-0.9-6.3	c-0.9,0.4-2.7,1.7-4.2,2.8c-1.6,1.1-3.3,2.4-5.5,3.8c-0.6,0.4-1.2,0.8-1.8,1.2c-6,3.9-9.6,6.2-13,4.8c-7-3-6.6-14.9-6.3-26.5	c0.2-5,0.4-14.3-1.1-15.6c0,0,0,0,0,0c-0.8,0-3.1,1.3-9.1,9.1c-6.5,8.6-10.5,19.2-11.6,30.7c-0.1,1.5-1.4,2.5-2.9,2.4	c-1.5-0.1-2.5-1.4-2.4-2.9c1.2-12.5,5.5-24.1,12.6-33.4c4.9-6.5,10.1-12.6,15.1-10.9c5.2,1.8,4.9,10.2,4.6,20.7	c-0.2,7.9-0.6,19.9,3.1,21.4c1,0.3,4.9-2.3,8.1-4.3c0.6-0.4,1.2-0.8,1.8-1.2c2-1.3,3.7-2.5,5.2-3.6c4.1-2.9,7.3-5.3,10.3-3.1	c2.4,1.7,2.8,5.8,3.1,10.5c0.2,2.3,0.5,6.2,1.2,7.1c0.2,0.1,1.8,0.8,7.1-2c1.3-0.7,2.9-0.2,3.6,1.1c0.7,1.3,0.2,2.9-1.1,3.6	C390.3,433.4,387.4,434.3,385.1,434.3z"/><linearGradient id="SVGID_1_" x1="456.632" x2="378.089" y1="293.923" y2="157.884" gradientUnits="userSpaceOnUse"><stop offset="0" style="stop-color:#fff;stop-opacity:0"/><stop offset=".095" style="stop-color:#f0f0f0;stop-opacity:6.676307e-02"/><stop offset=".28" style="stop-color:#c7c7c7;stop-opacity:.196"/><stop offset=".536" style="stop-color:#868686;stop-opacity:.3749"/><stop offset=".849" style="stop-color:#2d2d2d;stop-opacity:.5942"/><stop offset="1" style="stop-color:#000;stop-opacity:.7"/></linearGradient><polygon fill="url(#SVGID_1_)" points="340.4 179.7 440.3 303.3 441 179.8"/><g><g><g><g><circle cx="432.7" cy="115.8" r="102.4" fill="#FFF"/><path fill="#39B54A" d="M432.7,3.4c-62,0-112.4,50.4-112.4,112.4s50.4,112.4,112.4,112.4s112.4-50.4,112.4-112.4 S494.7,3.4,432.7,3.4z M432.7,208.2c-51,0-92.4-41.5-92.4-92.4s41.5-92.4,92.4-92.4s92.4,41.5,92.4,92.4 S483.7,208.2,432.7,208.2z"/></g></g></g><linearGradient id="SVGID_2_" x1="446.896" x2="392.274" y1="115.127" y2="60.505" gradientUnits="userSpaceOnUse"><stop offset="0" style="stop-color:#fff;stop-opacity:0"/><stop offset=".103" style="stop-color:#fafafa;stop-opacity:5.146120e-02"/><stop offset=".227" style="stop-color:#ebebeb;stop-opacity:.1133"/><stop offset=".361" style="stop-color:#d3d3d3;stop-opacity:.1804"/><stop offset=".503" style="stop-color:#b1b1b1;stop-opacity:.2514"/><stop offset=".651" style="stop-color:#858585;stop-opacity:.3254"/><stop offset=".804" style="stop-color:#505050;stop-opacity:.4019"/><stop offset=".958" style="stop-color:#121212;stop-opacity:.4791"/><stop offset="1" style="stop-color:#000;stop-opacity:.5"/></linearGradient><path fill="url(#SVGID_2_)" d="M447,115c0,0,24-21-2-57c-6.2-8.6-31-14-41.6-7C385.3,62.8,376,83.9,386,107 C399,137,447,115,447,115z"/><linearGradient id="SVGID_3_" x1="512" x2="429" y1="177" y2="94" gradientUnits="userSpaceOnUse"><stop offset="0" style="stop-color:#fff;stop-opacity:0"/><stop offset=".095" style="stop-color:#f0f0f0;stop-opacity:6.676307e-02"/><stop offset=".28" style="stop-color:#c7c7c7;stop-opacity:.196"/><stop offset=".536" style="stop-color:#868686;stop-opacity:.3749"/><stop offset=".849" style="stop-color:#2d2d2d;stop-opacity:.5942"/><stop offset="1" style="stop-color:#000;stop-opacity:.7"/></linearGradient><path fill="url(#SVGID_3_)" d="M481.5,202.5L528,161l-71-95c0,0,8.5,27.5-9.5,54.5l22,63L481.5,202.5z"/><linearGradient id="SVGID_4_" x1="492.724" x2="473.233" y1="202.601" y2="168.841" gradientUnits="userSpaceOnUse"><stop offset="0" style="stop-color:#fff;stop-opacity:0"/><stop offset=".185" style="stop-color:#fcfcfc;stop-opacity:.1295"/><stop offset=".318" style="stop-color:#f3f3f3;stop-opacity:.2226"/><stop offset=".435" style="stop-color:#e3e3e3;stop-opacity:.3043"/><stop offset=".542" style="stop-color:#cdcdcd;stop-opacity:.3795"/><stop offset=".643" style="stop-color:#b0b0b0;stop-opacity:.4502"/><stop offset=".739" style="stop-color:#8d8d8d;stop-opacity:.5176"/><stop offset=".832" style="stop-color:#636363;stop-opacity:.5823"/><stop offset=".919" style="stop-color:#333;stop-opacity:.6433"/><stop offset="1" style="stop-color:#000;stop-opacity:.7"/></linearGradient><polygon fill="url(#SVGID_4_)" points="463.9 174.8 484.5 207.3 500 193 477 166.7"/><g><circle cx="420.7" cy="87.9" r="38.2" fill="none" stroke="#009245" stroke-miterlimit="10" stroke-width="10"/><rect width="15.6" height="60" x="448" y="116.5" fill="#009245" transform="matrix(0.8587 -0.5125 0.5125 0.8587 -10.636 254.3148)"/></g><path fill="#009245" d="M517,41.5l-7.4,6.7l-7.5,6.7c14.3,16.3,23,37.6,23,60.9c0,51-41.5,92.4-92.4,92.4 c-26.7,0-50.8-11.4-67.7-29.6l-7.5,6.7l-7.4,6.7c20.6,22.2,49.9,36.2,82.5,36.2c62,0,112.4-50.4,112.4-112.4 C545.1,87.3,534.5,61.3,517,41.5z"/></g></svg>