<svg xmlns="http://www.w3.org/2000/svg" xmlns:xlink="http://www.w3.org/1999/xlink" id="Layer_1" x="0" y="0" enable-background="new 0 0 956 708" version="1.1" viewBox="0 0 956 708" xml:space="preserve"><g><path fill="#878787" d="M653.2,132.8H305.6c0,0-34.8,0-34.8,34.5v401c0,55.4,60.2,48,60.2,48l278.8-0.3c52.7,0,78.1-3.1,78.1-50.8 V167.4C688,132.8,653.2,132.8,653.2,132.8z M444.7,271h-34.8v34.5h34.8V271z M444.7,201.9h-34.8v34.5h34.8V201.9z M444.7,409.1 h-34.8v34.5h34.8V409.1z M444.7,340h-34.8v34.5h34.8V340z"/><path fill="#E6E6E6" d="M639.4,616.8H319.3c-34.6,0-48.6-18.8-48.6-51v-45.4h417.4v49.5C688.1,601,670.4,616.8,639.4,616.8z"/><linearGradient id="SVGID_1_" x1="595.255" x2="502.901" y1="573.846" y2="413.886" gradientUnits="userSpaceOnUse"><stop offset="0" style="stop-color:#fff;stop-opacity:0"/><stop offset=".095" style="stop-color:#f0f0f0;stop-opacity:6.676307e-02"/><stop offset=".28" style="stop-color:#c7c7c7;stop-opacity:.196"/><stop offset=".536" style="stop-color:#868686;stop-opacity:.3749"/><stop offset=".849" style="stop-color:#2d2d2d;stop-opacity:.5942"/><stop offset="1" style="stop-color:#000;stop-opacity:.7"/></linearGradient><polygon fill="url(#SVGID_1_)" points="391.7 478.1 430.8 520.1 688 520.3 688 477.7"/><path fill="#E6E6E6" d="M688.4,484.5H403.1c-19.9,0-35.9-16.1-35.9-35.9V132.4h287.7c18.5,0,33.5,15,33.5,33.5V484.5z"/><g><path fill="#727272" d="M411.3,413.3c-1.4,1.6-2.3,3.7-2.3,6v16.2c0,5.1,4.3,9.5,9.4,9.5h16.2c2.1,0,4-0.8,5.5-2L411.3,413.3z"/><path fill="#727272" d="M444,435.5v-16.2c0-5.1-4.3-9.3-9.4-9.3h-16.2c-2.8,0-5.3,1.3-7,3.3l28.8,29.7 C442.5,441.2,444,438.5,444,435.5z"/><linearGradient id="SVGID_2_" x1="488.791" x2="420.278" y1="520.889" y2="402.222" gradientUnits="userSpaceOnUse"><stop offset="0" style="stop-color:#fff;stop-opacity:0"/><stop offset=".095" style="stop-color:#f0f0f0;stop-opacity:6.676307e-02"/><stop offset=".28" style="stop-color:#c7c7c7;stop-opacity:.196"/><stop offset=".536" style="stop-color:#868686;stop-opacity:.3749"/><stop offset=".849" style="stop-color:#2d2d2d;stop-opacity:.5942"/><stop offset="1" style="stop-color:#000;stop-opacity:.7"/></linearGradient><path fill="url(#SVGID_2_)" d="M444,435.5v-16.2c0-5.1-4.3-9.3-9.4-9.3h-16.2c-2.8,0-5.3,1.3-7,3.3l28.8,29.7 C442.5,441.2,444,438.5,444,435.5z"/></g><g><path fill="#727272" d="M411.3,344.4c-1.4,1.6-2.3,3.7-2.3,6v16.2c0,5.1,4.3,9.4,9.4,9.4h16.2c2.1,0,4-0.8,5.5-1.9L411.3,344.4z"/><path fill="#727272" d="M444,366.6v-16.2c0-5.1-4.3-9.4-9.4-9.4h-16.2c-2.8,0-5.3,1.3-7,3.3l28.8,29.7 C442.5,372.3,444,369.6,444,366.6z"/><linearGradient id="SVGID_3_" x1="488.822" x2="420.268" y1="451.986" y2="333.245" gradientUnits="userSpaceOnUse"><stop offset="0" style="stop-color:#fff;stop-opacity:0"/><stop offset=".095" style="stop-color:#f0f0f0;stop-opacity:6.676307e-02"/><stop offset=".28" style="stop-color:#c7c7c7;stop-opacity:.196"/><stop offset=".536" style="stop-color:#868686;stop-opacity:.3749"/><stop offset=".849" style="stop-color:#2d2d2d;stop-opacity:.5942"/><stop offset="1" style="stop-color:#000;stop-opacity:.7"/></linearGradient><path fill="url(#SVGID_3_)" d="M444,366.6v-16.2c0-5.1-4.3-9.4-9.4-9.4h-16.2c-2.8,0-5.3,1.3-7,3.3l28.8,29.7 C442.5,372.3,444,369.6,444,366.6z"/></g><g><path fill="#727272" d="M411.3,275.4c-1.4,1.6-2.3,3.7-2.3,6v16.2c0,5.1,4.3,9.4,9.4,9.4h16.2c2.1,0,4-0.7,5.5-1.9L411.3,275.4z"/><path fill="#727272" d="M444,297.6v-16.2c0-5.1-4.3-9.5-9.4-9.5h-16.2c-2.8,0-5.3,1.4-7,3.3l28.8,29.7 C442.5,303.3,444,300.7,444,297.6z"/><linearGradient id="SVGID_4_" x1="488.855" x2="420.257" y1="383.083" y2="264.269" gradientUnits="userSpaceOnUse"><stop offset="0" style="stop-color:#fff;stop-opacity:0"/><stop offset=".095" style="stop-color:#f0f0f0;stop-opacity:6.676307e-02"/><stop offset=".28" style="stop-color:#c7c7c7;stop-opacity:.196"/><stop offset=".536" style="stop-color:#868686;stop-opacity:.3749"/><stop offset=".849" style="stop-color:#2d2d2d;stop-opacity:.5942"/><stop offset="1" style="stop-color:#000;stop-opacity:.7"/></linearGradient><path fill="url(#SVGID_4_)" d="M444,297.6v-16.2c0-5.1-4.3-9.5-9.4-9.5h-16.2c-2.8,0-5.3,1.4-7,3.3l28.8,29.7 C442.5,303.3,444,300.7,444,297.6z"/></g><g><path fill="#727272" d="M411.3,204.9c-1.4,1.6-2.3,3.7-2.3,6v16.2c0,5.1,4.3,9.8,9.4,9.8h16.2c2.1,0,4-1,5.5-2.1L411.3,204.9z"/><path fill="#727272" d="M444,227.2V211c0-5.1-4.3-10-9.4-10h-16.2c-2.8,0-5.3,1.6-7,3.6l28.8,29.8 C442.5,232.7,444,230.2,444,227.2z"/><linearGradient id="SVGID_5_" x1="489.117" x2="420.172" y1="312.856" y2="193.442" gradientUnits="userSpaceOnUse"><stop offset="0" style="stop-color:#fff;stop-opacity:0"/><stop offset=".095" style="stop-color:#f0f0f0;stop-opacity:6.676307e-02"/><stop offset=".28" style="stop-color:#c7c7c7;stop-opacity:.196"/><stop offset=".536" style="stop-color:#868686;stop-opacity:.3749"/><stop offset=".849" style="stop-color:#2d2d2d;stop-opacity:.5942"/><stop offset="1" style="stop-color:#000;stop-opacity:.7"/></linearGradient><path fill="url(#SVGID_5_)" d="M444,227.2V211c0-5.1-4.3-10-9.4-10h-16.2c-2.8,0-5.3,1.6-7,3.6l28.8,29.8 C442.5,232.7,444,230.2,444,227.2z"/></g><linearGradient id="SVGID_6_" x1="5445.119" x2="5408.955" y1="-4308.796" y2="-4371.433" gradientTransform="matrix(-8.979300e-11 1 1 8.979300e-11 4834.2729 -4834.2729)" gradientUnits="userSpaceOnUse"><stop offset="0" style="stop-color:#fff;stop-opacity:0"/><stop offset=".095" style="stop-color:#f0f0f0;stop-opacity:6.676307e-02"/><stop offset=".28" style="stop-color:#c7c7c7;stop-opacity:.196"/><stop offset=".536" style="stop-color:#868686;stop-opacity:.3749"/><stop offset=".849" style="stop-color:#2d2d2d;stop-opacity:.5942"/><stop offset="1" style="stop-color:#000;stop-opacity:.7"/></linearGradient><path fill="url(#SVGID_6_)" d="M477.3,549.7l45,53.1l0.1,13.4c-0.2-0.1-45.1,0.1-45.1,0.1L477.3,549.7z"/><g><polygon fill="#2C3E50" points="375.2 550 478.1 550 478.2 688.8 426.7 636.6 376.7 684.5"/><polygon fill="#24669B" points="478.1 585.2 374.5 689 374.5 550.3 478.1 550.3"/></g></g><g><linearGradient id="SVGID_7_" x1="696.742" x2="608.364" y1="340.994" y2="187.917" gradientUnits="userSpaceOnUse"><stop offset="0" style="stop-color:#fff;stop-opacity:0"/><stop offset=".095" style="stop-color:#f0f0f0;stop-opacity:6.676307e-02"/><stop offset=".28" style="stop-color:#c7c7c7;stop-opacity:.196"/><stop offset=".536" style="stop-color:#868686;stop-opacity:.3749"/><stop offset=".849" style="stop-color:#2d2d2d;stop-opacity:.5942"/><stop offset="1" style="stop-color:#000;stop-opacity:.7"/></linearGradient><polygon fill="url(#SVGID_7_)" points="561 215.3 687.9 346.1 687.4 215.4"/><circle cx="641.8" cy="138.1" r="102.4" fill="#FFF"/><path fill="#39B54A" d="M641.8,250.5c-62,0-112.4-50.4-112.4-112.4S579.8,25.7,641.8,25.7s112.4,50.4,112.4,112.4 S703.8,250.5,641.8,250.5z M641.8,45.7c-51,0-92.4,41.5-92.4,92.4s41.5,92.4,92.4,92.4s92.4-41.5,92.4-92.4S692.8,45.7,641.8,45.7z"/><linearGradient id="SVGID_8_" x1="711.781" x2="634.344" y1="209.719" y2="132.281" gradientUnits="userSpaceOnUse"><stop offset="0" style="stop-color:#fff;stop-opacity:0"/><stop offset=".095" style="stop-color:#f0f0f0;stop-opacity:6.676307e-02"/><stop offset=".28" style="stop-color:#c7c7c7;stop-opacity:.196"/><stop offset=".536" style="stop-color:#868686;stop-opacity:.3749"/><stop offset=".849" style="stop-color:#2d2d2d;stop-opacity:.5942"/><stop offset="1" style="stop-color:#000;stop-opacity:.7"/></linearGradient><polygon fill="url(#SVGID_8_)" points="633 197.8 671.5 237.5 743.5 178 703.8 133.6 632.5 134.1"/><g><path fill="#39B54A" d="M697.9,131H647V82c0-4.1-3.4-7.5-7.5-7.5S632,77.9,632,82v49h-46.3c-4.1,0-7.5,3.4-7.5,7.5l0,0 c0,4.1,3.4,7.5,7.5,7.5H632v48.2c0,4.1,3.4,7.5,7.5,7.5s7.5-3.4,7.5-7.5V146h50.9c4.1,0,7.5-3.4,7.5-7.5l0,0 C705.5,134.4,702.1,131,697.9,131z"/></g><g><path fill="#009245" d="M647,131v63.1c0,4.2-3.4,7.6-7.5,7.6l0,0c-4.1,0-7.5-3.4-7.5-7.6V146L647,131z"/></g><path fill="#009245" d="M726.1,63.8l-7.4,6.7l-7.5,6.7c14.3,16.3,23,37.6,23,60.9c0,51-41.5,92.4-92.4,92.4 c-26.7,0-50.8-11.4-67.7-29.6l-7.5,6.7l-7.4,6.7c20.6,22.2,49.9,36.2,82.5,36.2c62,0,112.4-50.4,112.4-112.4 C754.2,109.7,743.6,83.6,726.1,63.8z"/></g></svg>